<?xml version="1.0" encoding="utf-8"?>
<svg width="820.667" height="809.521" viewBox="0 0 820.667 809.521" fill="none" xmlns="http://www.w3.org/2000/svg">
  <g fill="#D3D3D3" fill-rule="evenodd" fill-opacity="0" transform="matrix(-0.914 -0.407 0.407 -0.914 574.035 809.521)">
    <path d="M481.295 50.863C481.295 50.863 483.377 47.7204 483.377 47.7204C424.59 11.4626 354.969 -4.88101 285.492 1.26657C216.015 7.41409 150.635 35.7032 99.6613 81.6731C48.6874 127.643 15.0199 188.678 3.96735 255.155C-7.08514 321.631 5.10614 389.766 38.6191 448.817C72.1321 507.868 125.06 554.474 189.057 581.287C253.053 608.1 324.478 613.594 392.069 596.903C459.659 580.212 519.569 542.286 562.353 489.104C605.137 435.922 628.359 370.51 628.359 303.184C628.359 303.184 624.495 303.184 624.495 303.184C624.495 369.682 601.557 434.289 559.3 486.817C517.043 539.344 457.869 576.804 391.11 593.29C324.352 609.776 253.805 604.349 190.596 577.866C127.386 551.383 75.1096 505.35 42.009 447.026C8.90833 388.701 -3.133 321.404 7.78345 255.745C18.7 190.087 51.9534 129.802 102.3 84.398C152.647 38.9937 217.223 11.0526 285.845 4.98065C354.467 -1.09137 423.232 15.0513 481.295 50.863Z" />
    <path d="M482.825 48.5549L481.296 50.8634C423.232 15.0516 354.468 -1.09103 285.845 4.98099C217.223 11.0529 152.647 38.994 102.301 84.3983C51.9539 129.803 18.7005 190.087 7.78394 255.746C-3.13251 321.404 8.90881 388.702 42.0095 447.026C75.1101 505.35 127.387 551.383 190.596 577.866C253.806 604.35 324.352 609.776 391.111 593.29C457.87 576.805 517.043 539.344 559.301 486.817C601.558 434.29 624.495 369.684 624.495 303.186L624.495 303.184L625.495 303.184L627.36 303.184L628.36 303.184L628.36 303.185C628.36 303.518 628.359 303.851 628.358 304.184C628.129 371.158 604.925 436.186 562.353 489.104C519.57 542.286 459.659 580.213 392.069 596.904C324.479 613.595 253.054 608.101 189.057 581.287C125.06 554.474 72.1326 507.868 38.6196 448.817C5.10663 389.767 -7.08466 321.631 3.96783 255.155C15.0204 188.678 48.6879 127.643 99.6617 81.6734C150.636 35.7035 216.016 7.41443 285.492 1.26691C354.634 -4.85098 423.918 11.3056 482.525 47.1968C482.809 47.371 483.093 47.5456 483.377 47.7207L482.825 48.5549ZM481.972 48.031Q438.393 21.3448 388.215 9.56534Q337.525 -2.33371 285.581 2.26303Q233.632 6.8598 186.036 27.4546Q138.44 48.0479 100.331 82.4161Q62.2242 116.783 37.7198 161.207Q13.215 205.632 4.95428 255.319Q-3.30884 305 5.56604 354.595Q14.4372 404.181 39.4893 448.324Q64.5401 492.464 103.068 526.391Q141.594 560.32 189.444 580.365Q237.291 600.411 289.292 604.412Q341.288 608.414 391.829 595.933Q442.362 583.455 485.979 555.843Q529.59 528.234 561.574 488.477Q593.556 448.725 610.458 401.114Q627.191 353.98 627.358 304.184L625.493 304.184Q625.327 353.703 608.687 400.574Q591.881 447.916 560.08 487.444Q528.282 526.969 484.929 554.414Q441.578 581.857 391.351 594.261Q341.12 606.664 289.446 602.689Q237.766 598.712 190.21 578.789Q142.648 558.864 104.351 525.137Q66.0485 491.406 41.1397 447.519Q16.2286 403.623 7.40594 354.312Q-1.41925 304.989 6.79749 255.582Q15.0146 206.168 39.3804 161.994Q63.744 117.824 101.631 83.6557Q139.513 49.4923 186.823 29.0223Q234.128 8.55374 285.757 3.98483Q337.383 -0.584442 387.759 11.2422Q437.66 22.956 480.996 49.5052L481.972 48.031Z" fill="#000000" fill-rule="evenodd" />
  </g>
</svg>